<svg version="1.2" xmlns="http://www.w3.org/2000/svg" viewBox="0 0 972 79" width="972" height="79">
	<path id="Path 1" fill-rule="evenodd" class="s0" d="m456.6 53.9c0-2.5 1.8-4.4 4.2-4.4 2.5 0 4.4 1.9 4.4 4.4 0 2.4-1.9 4.4-4.4 4.4-2.4 0-4.2-2-4.2-4.4zm-42.7-32.1h5.3v6.8c2.9-4.7 7.8-7.6 13.9-7.6 10.3 0 18 8.1 18 18.7 0 10.6-7.7 18.6-18 18.6-5.9 0-10.6-2.7-13.5-7.2v20.9h-5.7zm31.3 18c0-7.6-5.6-13.5-12.9-13.5-7.2 0-12.8 5.9-12.8 13.5 0 7.6 5.6 13.4 12.8 13.4 7.3 0 12.9-5.8 12.9-13.4zm-77-0.1c0-10.6 8.2-18.6 19.2-18.6 10.9 0 19.2 8 19.2 18.6 0 10.6-8.5 18.7-19.2 18.7-11 0-19.2-8.1-19.2-18.7zm32.6 0c0-7.8-5.7-13.4-13.4-13.4-7.8 0-13.4 5.6-13.4 13.4 0 7.8 5.6 13.4 13.4 13.4 7.7 0 13.4-5.6 13.4-13.4zm-73.6-33h5.8v21.2c2.6-4.2 7.2-6.8 12.8-6.8 9.5 0 15.7 6.6 15.7 17.1v19.5h-5.7v-18.8c0-7.8-4.1-12.6-10.9-12.6-6.9 0-11.9 5.4-11.9 12.6v18.8h-5.8zm-40.8 39h5.8c1.1 5.4 6.1 8.1 12 8.1 3.8 0 9.7-1.2 9.7-5.7 0-4-4.6-4.5-10.9-5.6-8-1.5-15.3-3.4-15.3-10.8 0-7.9 8.3-10.8 15.4-10.8 7.9 0 15.5 3.7 16.5 12.4h-5.9c-1.1-5.2-6.1-7.4-11.3-7.4-3.8 0-9 1.3-9 5.6 0 3.9 4.9 4.7 10.9 5.8 8.1 1.4 15.6 3.1 15.6 10.6 0 7.6-8.2 10.7-15.6 10.7-8.7 0-16.7-3.9-17.9-12.9zm-40.5-5.9c0-10.7 8.5-18.7 19.1-18.7 10.6 0 18.7 7.9 18.7 18.4 0 0.9-0.1 1.5-0.2 2.2h-32c0.8 6.6 6.2 11.8 13.8 11.8 5.2 0 9.7-2.5 11.3-6.4h5.7c-1.7 6.3-8.4 11.3-17.3 11.3-11.1 0-19.1-7.9-19.1-18.6zm19.1-13.7c-6.8 0-12.2 4.5-13.2 10.9h26.1c-1-6.4-6.2-10.9-12.9-10.9zm-61.5 13.6c0-10.6 8.3-18.6 19.1-18.6 11 0 19.3 8 19.3 18.6 0 10.6-8.4 18.7-19.3 18.7-10.8 0-19.1-8-19.1-18.7zm32.5 0c0-7.7-5.7-13.4-13.4-13.4-7.6 0-13.3 5.6-13.3 13.4 0 7.8 5.7 13.5 13.3 13.5 7.7 0 13.4-5.7 13.4-13.5zm-73.5-33h5.7v21.2c2.7-4.2 7.3-6.8 12.9-6.8 9.5 0 15.7 6.6 15.7 17.1v19.5h-5.7v-18.7c0-7.9-4.1-12.6-10.8-12.6-6.9 0-12.1 5.4-12.1 12.6v18.7h-5.7zm-40.8 39.1h5.8c1.1 5.3 6 8.1 12 8.1 3.8 0 9.8-1.2 9.8-5.7 0-4.1-4.7-4.5-11-5.7-8-1.5-15.2-3.3-15.3-10.7 0-7.9 8.3-10.9 15.4-10.9 7.9 0 15.4 3.7 16.5 12.5h-5.8c-1.1-5.3-6.1-7.4-11.4-7.4-3.8 0-9 1.2-9 5.5 0 4 4.9 4.7 10.8 5.8 8.2 1.5 15.7 3.2 15.7 10.6 0 7.7-8.2 10.7-15.7 10.7-8.6 0-16.6-3.8-17.8-12.8zm841.7 8.2c0-2.5 1.8-4.4 4.2-4.4 2.5 0 4.4 1.9 4.4 4.4 0 2.4-1.9 4.3-4.4 4.3-2.4 0-4.2-1.9-4.2-4.3zm-42.7-32.2h5.3v6.9c2.9-4.7 7.8-7.6 13.9-7.6 10.3 0 18 8 18 18.6 0 10.6-7.7 18.7-18 18.7-5.9 0-10.6-2.8-13.5-7.2v20.8h-5.7zm31.3 18c0-7.6-5.6-13.4-12.9-13.4-7.2 0-12.8 5.8-12.8 13.4 0 7.7 5.6 13.5 12.8 13.5 7.3 0 12.9-5.8 12.9-13.5zm-77 0c0-10.6 8.2-18.7 19.2-18.7 10.9 0 19.2 8.1 19.2 18.7 0 10.6-8.5 18.6-19.2 18.6-11 0-19.2-8-19.2-18.6zm32.6 0c0-7.8-5.7-13.5-13.4-13.5-7.8 0-13.4 5.6-13.4 13.5 0 7.7 5.6 13.4 13.4 13.4 7.7 0 13.4-5.7 13.4-13.4zm-73.6-33.1h5.8v21.2c2.6-4.2 7.2-6.8 12.8-6.8 9.5 0 15.7 6.6 15.7 17.1v19.6h-5.7v-18.8c0-7.9-4.1-12.6-10.9-12.6-6.9 0-11.9 5.4-11.9 12.6v18.8h-5.8zm-40.8 39h5.8c1.1 5.4 6.1 8.1 12 8.1 3.8 0 9.8-1.3 9.8-5.7 0-4.1-4.7-4.5-11-5.6-8-1.6-15.2-3.5-15.3-10.8 0-7.9 8.3-10.8 15.4-10.8 7.9 0 15.5 3.7 16.5 12.4h-5.9c-1.1-5.2-6.1-7.4-11.3-7.4-3.8 0-9 1.2-9 5.6 0 3.9 4.9 4.6 10.9 5.7 8.1 1.5 15.6 3.2 15.6 10.7 0 7.6-8.2 10.7-15.6 10.7-8.7 0-16.7-4-17.9-12.9zm-40.5-5.9c0-10.7 8.5-18.8 19.1-18.8 10.6 0 18.7 8 18.7 18.5 0 0.8-0.1 1.4-0.2 2.2h-32c0.8 6.6 6.2 11.8 13.8 11.8 5.2 0 9.7-2.5 11.3-6.4h5.7c-1.7 6.3-8.4 11.3-17.3 11.3-11.1 0-19.1-8-19.1-18.6zm19.1-13.8c-6.8 0-12.2 4.5-13.2 10.9h26.1c-1-6.4-6.2-10.9-12.9-10.9zm-61.5 13.7c0-10.6 8.3-18.7 19.2-18.7 10.9 0 19.2 8.1 19.2 18.7 0 10.6-8.4 18.7-19.2 18.7-10.9 0-19.2-8-19.2-18.7zm32.5 0c0-7.8-5.7-13.4-13.3-13.4-7.7 0-13.4 5.6-13.4 13.4 0 7.8 5.7 13.4 13.4 13.4 7.6 0 13.3-5.6 13.3-13.4zm-73.5-33h5.7v21.2c2.7-4.2 7.3-6.9 12.9-6.9 9.5 0 15.7 6.6 15.7 17.2v19.5h-5.7v-18.7c0-7.9-4.1-12.6-10.8-12.6-6.9 0-12.1 5.4-12.1 12.6v18.7h-5.7zm-40.8 39.1h5.8c1.1 5.3 6 8.1 12 8.1 3.8 0 9.8-1.3 9.8-5.8 0-4-4.7-4.5-11-5.6-8-1.6-15.2-3.4-15.3-10.7 0-8 8.3-10.9 15.4-10.9 7.9 0 15.4 3.7 16.5 12.5h-5.8c-1.1-5.3-6.1-7.4-11.4-7.4-3.8 0-9 1.2-9 5.5 0 3.9 4.9 4.7 10.9 5.7 8.1 1.6 15.6 3.3 15.6 10.7 0 7.6-8.2 10.7-15.6 10.7-8.7 0-16.7-3.9-17.9-12.8zm-548.4-6.4c-30.3 0-40.1 5.2-40.1 39.6 0-34.4-8.7-39.6-40-39.6 31.2 0 40-6.1 40-39.7 0 33.6 9.8 39.7 40.1 39.7zm506.8 0c-30.3 0-40.1 5.2-40.1 39.6 0-34.4-8.7-39.6-40-39.6 31.2 0 40-6.1 40-39.7 0 33.6 9.8 39.7 40.1 39.7z"/>
</svg>