<svg version="1.2" xmlns="http://www.w3.org/2000/svg" viewBox="0 0 611 317" width="611" height="317">
	<path id="Path 1" fill-rule="evenodd" class="s0" d="m140 292c-50.9 0-86.3-12.5-95.5-37.5-7.5-20.8 4.5-46.7 31.2-73.7v-81.9h10.6v39.3c5-7.9 13.5-12.7 23.9-12.7 9.7 0 17.5 3.7 22.6 10.2 37.8-24.5 85.4-48 139.4-67.7 69.1-25.1 137.5-39.6 192.5-40.7 56.5-1.2 92.6 12.1 101.8 37.2 9.2 25.2-10 58.5-54 94-42.9 34.5-104.6 67.3-173.7 92.5-74.9 27.3-145.4 41-198.8 41zm331.4-256.8q-3.2 0-6.5 0.1c-54.2 1.1-121.6 15.4-189.9 40.3-52 18.9-99.7 42.2-138.2 67.2 1.7 4.2 2.6 9.1 2.6 14.4v36.3h-10.7v-34.8q0-5.3-1.3-9.6c-8.5 5.9-16.4 11.8-23.8 17.7q-9.4 7.6-17.3 15v11.7h-10.6v-0.9c-20.8 22.8-29.3 43.5-23.6 59.2 7.7 21.3 42 33 94 31.9 54.2-1.1 121.7-15.4 190-40.2 68.3-24.9 129.2-57.3 171.4-91.3 40.5-32.6 59.3-63.6 51.5-84.9-7.5-20.5-39.3-32.1-87.6-32.1zm-471.4 136.2h10.8c2 9.8 11.2 14.9 22.2 14.9 7.1 0 18.2-2.3 18.2-10.5 0-7.6-8.7-8.4-20.4-10.6-14.8-2.8-28.3-6.2-28.4-19.8 0-14.8 15.3-20.1 28.5-20.1 14.8 0 28.8 6.8 30.8 23h-10.9c-2-9.7-11.4-13.7-21.1-13.7-7 0-16.6 2.3-16.6 10.3 0 7.3 9 8.6 20.1 10.6 15 2.8 29 6 29 19.9 0 14.1-15.3 19.7-29 19.7-16.1 0-30.9-7.2-33.2-23.7zm108.6-36c-12.8 0-22.3 10-22.3 23.3v12c10.8-9.6 23.3-19.3 37.3-28.9-3.5-4.1-8.6-6.4-15-6.4z"/>
	<path id="Path 2" fill-rule="evenodd" class="s0" d="m151.8 160.2c0-19.7 15.3-34.7 35.5-34.7 20.3 0 35.6 15 35.6 34.7 0 19.6-15.6 34.6-35.6 34.6-20.2 0-35.5-14.9-35.5-34.6zm60.3 0c0-14.4-10.5-24.9-24.8-24.9-14.4 0-24.7 10.4-24.7 24.9 0 14.4 10.3 24.9 24.7 24.9 14.3 0 24.8-10.5 24.8-24.9zm18.4 0.1c0-19.8 15.6-34.8 35.5-34.8 19.4 0 34.5 14.7 34.5 34.3 0 1.6-0.2 2.6-0.3 4h-59.3c1.3 12.2 11.5 22 25.6 22 9.4 0 17.8-4.7 20.9-11.9h10.5c-3 11.7-15.6 20.9-31.9 20.9-20.8 0-35.5-14.8-35.5-34.5zm35.3-25.4c-12.5 0-22.6 8.2-24.5 20.1h48.5c-1.9-11.9-11.5-20.1-24-20.1zm39.7 36.5h10.8c2 9.8 11.2 14.9 22.3 14.9 7 0 18.1-2.3 18.1-10.5 0-7.6-8.7-8.4-20.4-10.6-14.8-2.8-28.2-6.2-28.4-19.8 0-14.8 15.3-20.1 28.5-20.1 14.8 0 28.8 6.8 30.8 23h-10.9c-2-9.7-11.3-13.7-21.1-13.7-7 0-16.6 2.3-16.6 10.3 0 7.3 9 8.6 20.1 10.6 15.1 2.8 29 6 29 19.9 0 14.1-15.3 19.7-29 19.7-16.1 0-30.9-7.2-33.2-23.7zm75.7-72.5h10.7v39.3c4.9-7.9 13.4-12.7 23.8-12.7 17.7 0 29.2 12.3 29.2 31.7v36.3h-10.7v-34.8c0-14.6-7.6-23.3-20.1-23.3-12.8 0-22.2 10-22.2 23.3v34.8h-10.7zm76.1 61.3c0-19.7 15.3-34.7 35.6-34.7 20.2 0 35.5 15 35.5 34.7 0 19.6-15.6 34.6-35.5 34.6-20.3 0-35.6-14.9-35.6-34.6zm60.3 0c0-14.4-10.5-24.9-24.7-24.9-14.4 0-24.8 10.4-24.8 24.9 0 14.4 10.4 24.9 24.8 24.9 14.2 0 24.7-10.5 24.7-24.9zm24.4-33.3h9.9v12.8c5.3-8.7 14.5-14.2 25.8-14.2 19 0 33.3 15 33.3 34.7 0 19.7-14.3 34.6-33.3 34.6-10.9 0-19.8-5.2-25-13.3v38.6h-10.7zm58.3 33.4c0-14.2-10.6-25-24-25-13.5 0-23.9 10.8-23.9 25 0 14.1 10.4 24.9 23.9 24.9 13.4 0 24-10.8 24-24.9zm-494.1 113.1c-33.3 0-44.1 5.8-44.1 43.7 0-37.9-9.7-43.7-44.1-43.7 34.4 0 44.1-6.7 44.1-43.7 0 37 10.8 43.7 44.1 43.7z"/>
	<path id="Path 3" fill-rule="evenodd" class="s0" d="m389.4 262.3c-30.1 0-62.3-2-96-6.2-72.9-9.1-140.4-27.5-189.9-51.6-50.8-24.7-76.9-52.9-73.6-79.5 6.8-54.2 133.2-81.4 287.7-62.1 154.5 19.4 270.3 77 263.5 131.1-5.3 42.4-83.8 68.3-191.7 68.3zm-166.8-197.5c-36.8 0-70.9 3-100.1 9.1-51 10.5-81.8 29.5-84.6 52.1-2.8 22.6 22.4 48.6 69.1 71.3 48.7 23.8 115.3 41.8 187.4 50.9 72.1 9 141.1 7.9 194.2-3.1 50.9-10.5 81.7-29.5 84.6-52.1 2.8-22.5-22.4-48.5-69.2-71.3-48.7-23.8-115.2-41.8-187.4-50.8-32.3-4.1-64.1-6.1-94-6.1zm357.6-21.5c-33.3 0-44.1 5.8-44.1 43.7 0-37.9-9.7-43.7-44.1-43.7 34.4 0 44.1-6.7 44.1-43.7 0 37 10.8 43.7 44.1 43.7z"/>
</svg>