<svg version="1.2" xmlns="http://www.w3.org/2000/svg" viewBox="0 0 474 91" width="474" height="91">
	<title>Layer 1</title>
	<style>
	</style>
	<g id="Layer 1">
		<path id="&lt;Compound Path&gt;" fill-rule="evenodd" class="s0" d="m0.7 54.7h8c1.5 7.3 8.3 11.1 16.5 11.1 5.3 0 13.5-1.7 13.5-7.9 0-5.6-6.4-6.2-15.1-7.8-11-2.1-21-4.6-21.1-14.7 0-11 11.4-15 21.2-15 10.9 0 21.3 5.1 22.8 17.2h-8.1c-1.5-7.3-8.4-10.2-15.6-10.2-5.3 0-12.4 1.6-12.4 7.6 0 5.4 6.7 6.4 14.9 7.9 11.2 2.1 21.6 4.5 21.6 14.7 0 10.5-11.4 14.7-21.6 14.7-11.9 0-22.9-5.3-24.6-17.6zm56.2-53.9h7.9v29.2c3.7-5.8 10-9.4 17.7-9.4 13.2 0 21.7 9.1 21.7 23.6v26.9h-7.9v-25.8c0-10.9-5.6-17.3-14.9-17.3-9.5 0-16.6 7.4-16.6 17.3v25.8h-7.9zm56.5 45.5c0-14.6 11.4-25.7 26.4-25.7 15.1 0 26.5 11.1 26.5 25.7 0 14.6-11.6 25.8-26.5 25.8-15 0-26.4-11.1-26.4-25.8zm44.8 0c0-10.7-7.8-18.5-18.4-18.5-10.6 0-18.4 7.7-18.4 18.5 0 10.7 7.8 18.5 18.4 18.5 10.6 0 18.4-7.8 18.4-18.5zm13.7 0.1c0-14.7 11.6-25.8 26.3-25.8 14.5 0 25.7 10.9 25.7 25.4 0 1.2-0.1 2-0.2 3h-44.1c1 9.1 8.5 16.3 19 16.3 7.1 0 13.3-3.4 15.6-8.8h7.8c-2.3 8.7-11.6 15.6-23.8 15.6-15.4 0-26.3-11-26.3-25.7zm26.2-18.9c-9.3 0-16.8 6.2-18.2 15h36c-1.3-8.8-8.5-15-17.8-15zm29.5 27.1h8c1.5 7.4 8.4 11.1 16.6 11.1 5.2 0 13.4-1.7 13.4-7.8 0-5.6-6.4-6.2-15.1-7.8-11-2.1-21-4.7-21.1-14.8 0-10.9 11.4-14.9 21.2-14.9 11 0 21.4 5.1 22.8 17.1h-8.1c-1.5-7.2-8.4-10.2-15.6-10.2-5.2 0-12.4 1.7-12.4 7.7 0 5.4 6.8 6.4 15 7.9 11.2 2 21.5 4.4 21.5 14.7 0 10.5-11.3 14.7-21.5 14.7-12 0-23-5.4-24.7-17.7zm56.2-53.8h8v29.2c3.6-5.8 10-9.4 17.7-9.4 13.1 0 21.6 9.1 21.6 23.6v26.9h-7.9v-25.9c0-10.8-5.6-17.3-14.9-17.3-9.5 0-16.5 7.4-16.5 17.3v25.9h-8zm56.6 45.5c0-14.6 11.3-25.7 26.4-25.7 15 0 26.4 11.1 26.4 25.7 0 14.6-11.6 25.7-26.4 25.7-15.1 0-26.4-11.1-26.4-25.7zm44.8 0c0-10.7-7.8-18.5-18.4-18.5-10.7 0-18.4 7.7-18.4 18.5 0 10.7 7.7 18.5 18.4 18.5 10.6 0 18.4-7.8 18.4-18.5zm18.1-24.7h7.3v9.5c4-6.5 10.8-10.5 19.2-10.5 14.1 0 24.8 11.1 24.8 25.7 0 14.6-10.7 25.7-24.8 25.7-8.1 0-14.7-3.8-18.6-9.9v28.7h-7.9zm43.2 24.8c0-10.5-7.8-18.5-17.8-18.5-10 0-17.7 8-17.7 18.5 0 10.5 7.7 18.5 17.7 18.5 10 0 17.8-8 17.8-18.5zm15.6 19.5c0-3.4 2.6-6 5.9-6 3.4 0 6 2.6 6 6 0 3.3-2.6 6-6 6-3.3 0-5.9-2.7-5.9-6z"/>
	</g>
</svg>